<svg width="160" height="160" viewBox="0 0 160 160" fill="none" xmlns="http://www.w3.org/2000/svg">
<path d="M0.0175781 80C0.0175781 115.346 28.6714 144 64.0176 144C99.3638 144 128.018 115.346 128.018 80C128.018 44.6538 99.3638 16 64.0176 16C28.6714 16 0.0175781 44.6538 0.0175781 80Z" fill="#F6F6F6"></path>
<path d="M21 120C21 122.209 39.5802 124 62.5 124C85.4198 124 104 122.209 104 120C104 117.791 85.4198 116 62.5 116C39.5802 116 21 117.791 21 120Z" fill="#FFBB99"></path>
<path d="M79.1559 40.8264L78.9758 40.8317C77.6634 40.9092 76.5415 41.8293 76.219 43.1179L74.6372 49.4497L19.2696 49.4505C17.5984 49.4518 16.2449 50.8064 16.2449 52.4769V115.008C16.2449 117.869 18.5648 120.189 21.4265 120.189H103.356C106.217 120.189 108.537 117.869 108.537 115.008V52.4769L108.532 52.2991C108.44 50.7104 107.123 49.4505 105.511 49.4505L101.877 49.4497L100.294 43.1181C99.957 41.7712 98.747 40.8264 97.3589 40.8264H79.1559Z" fill="#FF5600"></path>
<path d="M79.156 42.5655H97.359C97.9491 42.5655 98.4637 42.9674 98.6071 43.5402L100.355 50.531C100.452 50.9181 100.8 51.1896 101.199 51.1896H105.511C106.222 51.1896 106.798 51.766 106.798 52.4769V115.008C106.798 116.909 105.257 118.45 103.356 118.45H21.4266C19.5254 118.45 17.9841 116.909 17.9841 115.008V52.4769C17.9841 51.7664 18.5599 51.1902 19.2704 51.1896H75.3162C75.7153 51.1896 76.0631 50.918 76.1598 50.5308L77.9063 43.5398C78.0496 42.9673 78.5647 42.5655 79.156 42.5655Z" fill="#FFBB99"></path>
<path d="M113.747 66.7004H11.0268C10.1369 66.7004 9.29204 67.0919 8.71696 67.771C8.14183 68.4501 7.89474 69.3479 8.04141 70.2257L15.6471 115.857C16.0618 118.356 18.2242 120.189 20.7585 120.189H104.015C106.548 120.189 108.71 118.358 109.126 115.86L116.732 70.2253C116.878 69.3475 116.631 68.4503 116.056 67.7716C115.481 67.0925 114.636 66.7004 113.747 66.7004Z" fill="#FF5600"></path>
<path d="M11.0267 68.4396H113.747C114.125 68.4396 114.484 68.6064 114.729 68.8955C114.973 69.1845 115.079 69.5664 115.017 69.9399L107.411 115.574C107.134 117.234 105.698 118.45 104.015 118.45H20.7585C19.0749 118.45 17.6383 117.232 17.3627 115.571L9.75678 69.9394C9.69433 69.5657 9.79943 69.1838 10.0441 68.8949C10.2887 68.6061 10.6481 68.4396 11.0267 68.4396Z" fill="white"></path>
<path d="M123.6 77.242C122.461 78.841 121.19 80.3423 119.802 81.7304C118.962 82.5684 118.092 83.3558 117.192 84.0922C116.794 84.418 116.764 85.0162 117.128 85.3799L124.892 93.1437C125.231 93.4832 125.782 93.4832 126.122 93.1437L132.913 86.3519C133.253 86.0123 133.253 85.4617 132.913 85.1221L124.923 77.1317C124.543 76.7514 123.912 76.804 123.6 77.242Z" fill="#FF5600"></path>
<path d="M124.408 79.0766L131.069 85.737L125.506 91.2982L119.027 84.8197L119.411 84.4853C119.962 83.9963 120.502 83.4882 121.031 82.9611C122.124 81.8682 123.147 80.709 124.094 79.4899L124.408 79.0766Z" fill="white"></path>
<path d="M131.737 85.0649L124.835 91.9653C123.593 93.2167 123.593 95.2324 124.833 96.4815L146.275 117.931C149.346 120.98 154.298 120.98 157.367 117.933L157.693 117.606C159.168 116.138 159.998 114.142 159.998 112.059C159.998 109.977 159.168 107.98 157.692 106.511L136.251 85.0649C135.002 83.8248 132.986 83.8248 131.737 85.0649Z" fill="#FF5600"></path>
<path d="M135.026 86.2991L156.464 107.742C157.613 108.886 158.259 110.439 158.259 112.059C158.259 113.679 157.613 115.232 156.465 116.375L156.139 116.701C153.751 119.072 149.893 119.072 147.503 116.699L126.065 95.2541C125.5 94.6852 125.5 93.7639 126.067 93.1929L132.965 86.297C133.534 85.7322 134.455 85.7322 135.026 86.2991Z" fill="#FFBB99"></path>
<path d="M94.9531 27.2033C78.5621 27.2033 65.2747 40.4908 65.2747 56.8817C65.2747 73.2727 78.5621 86.5602 94.9531 86.5602C111.344 86.5602 124.632 73.2727 124.632 56.8817C124.632 40.4908 111.344 27.2033 94.9531 27.2033Z" fill="#FF9966"></path>
<path d="M80.8393 22.8084C94.6207 17.1 110.484 20.2554 121.032 30.8032C127.948 37.7194 131.834 47.1003 131.834 56.8817C131.834 66.6632 127.948 76.044 121.032 82.9602C110.484 93.5081 94.6207 96.6635 80.8393 90.955C67.058 85.2466 58.0723 71.7986 58.0723 56.8817C58.0723 41.9649 67.058 28.5169 80.8393 22.8084Z" fill="#FF5600"></path>
<path d="M119.802 32.033C109.752 21.9826 94.6365 18.976 81.505 24.4152C68.3735 29.8544 59.8115 42.6683 59.8115 56.8818C59.8115 71.0952 68.3735 83.9091 81.505 89.3483C94.6365 94.7875 109.752 91.7809 119.802 81.7305C126.393 75.1404 130.095 66.202 130.095 56.8818C130.095 47.5615 126.393 38.6231 119.802 32.033Z" fill="#FFBB99"></path>
<path d="M106.319 29.4591C117.409 34.0567 124.636 44.8823 124.631 56.887C124.628 73.2771 111.341 86.5604 94.953 86.5533C82.948 86.5533 72.1254 79.321 67.5325 68.2294C62.9396 57.1379 65.481 44.3717 73.9715 35.8847C82.4621 27.3977 95.2293 24.8616 106.319 29.4591Z" fill="#FF9966"></path>
<path d="M75.2011 37.1147C83.1941 29.125 95.2132 26.7375 105.653 31.0657C116.093 35.3938 122.897 45.5851 122.892 56.8865C122.891 66.1059 118.424 74.2809 111.538 79.3668L111.537 49.477L111.532 49.2991C111.44 47.7104 110.123 46.4505 108.511 46.4505L104.877 46.4498L103.294 40.1181C102.957 38.7713 101.747 37.8264 100.359 37.8264H82.1559L81.9758 37.8317C80.6634 37.9093 79.5416 38.8294 79.2191 40.1179L77.6372 46.4498L69.0308 46.4499C70.4097 43.0189 72.4811 39.8335 75.2011 37.1147Z" fill="white"></path>
<path d="M100.359 39.5655C100.949 39.5655 101.464 39.9674 101.607 40.5402L103.355 47.531C103.452 47.9181 103.8 48.1896 104.199 48.1896H108.511C109.222 48.1896 109.798 48.766 109.798 49.4769L109.799 80.5527C105.498 83.2548 100.408 84.8165 94.9534 84.8142C83.6516 84.8142 73.4632 78.0057 69.1394 67.5641C66.5329 61.2696 66.3671 54.4023 68.3975 48.1899L78.3161 48.1896C78.7152 48.1896 79.063 47.918 79.1597 47.5308L80.9062 40.5398C81.0495 39.9673 81.5646 39.5655 82.1559 39.5655H100.359Z" fill="#FFBB99"></path>
<path d="M117.747 59.7004C118.636 59.7004 119.481 60.0925 120.056 60.7716C120.631 61.4503 120.878 62.3475 120.732 63.2253L118.859 74.4724C113.455 81.8033 104.759 86.5575 94.953 86.5533C82.948 86.5533 72.1254 79.321 67.5325 68.2295C66.3856 65.4599 65.6836 62.586 65.408 59.7003L117.747 59.7004Z" fill="#FF9966"></path>
<path d="M117.747 61.4396C118.125 61.4396 118.484 61.6064 118.729 61.8956C118.973 62.1845 119.079 62.5664 119.017 62.9399L117.211 73.7714C112.108 80.485 104.036 84.8181 94.9534 84.8142C83.6515 84.8142 73.4631 78.0057 69.1393 67.5641C68.3124 65.5671 67.7311 63.5124 67.3877 61.4393L117.747 61.4396Z" fill="white"></path>
<path d="M106.319 29.4591C117.409 34.0567 124.636 44.8823 124.631 56.887C124.628 73.2771 111.341 86.5604 94.953 86.5533C82.948 86.5533 72.1254 79.321 67.5325 68.2294C62.9396 57.1379 65.481 44.3717 73.9715 35.8847C82.4621 27.3977 95.2293 24.8616 106.319 29.4591ZM94.953 28.9424C79.5225 28.9424 67.0137 41.4513 67.0137 56.8817C67.0137 72.3122 79.5225 84.821 94.953 84.821C110.383 84.821 122.892 72.3122 122.892 56.8817C122.892 41.4513 110.383 28.9424 94.953 28.9424Z" fill="#FF5600"></path>
</svg>